<?xml version="1.0" encoding="UTF-8" standalone="no"?>
<!-- Generator: IcoMoon.io -->

<svg
   xmlns:dc="http://purl.org/dc/elements/1.1/"
   xmlns:cc="http://creativecommons.org/ns#"
   xmlns:rdf="http://www.w3.org/1999/02/22-rdf-syntax-ns#"
   xmlns:svg="http://www.w3.org/2000/svg"
   xmlns="http://www.w3.org/2000/svg"
   xmlns:sodipodi="http://sodipodi.sourceforge.net/DTD/sodipodi-0.dtd"
   xmlns:inkscape="http://www.inkscape.org/namespaces/inkscape"
   width="512"
   height="512"
   viewBox="0 0 512 512"
   fill="#000000"
   id="svg2"
   version="1.1"
   inkscape:version="0.48.5 r10040"
   sodipodi:docname="search.svg">
  <metadata
     id="metadata73">
    <rdf:RDF>
      <cc:Work
         rdf:about="">
        <dc:format>image/svg+xml</dc:format>
        <dc:type
           rdf:resource="http://purl.org/dc/dcmitype/StillImage" />
      </cc:Work>
    </rdf:RDF>
  </metadata>
  <defs
     id="defs71" />
  <sodipodi:namedview
     pagecolor="#ffffff"
     bordercolor="#666666"
     borderopacity="1"
     objecttolerance="10"
     gridtolerance="10"
     guidetolerance="10"
     inkscape:pageopacity="0"
     inkscape:pageshadow="2"
     inkscape:window-width="1366"
     inkscape:window-height="705"
     id="namedview69"
     showgrid="false"
     inkscape:zoom="0.4609375"
     inkscape:cx="256"
     inkscape:cy="256"
     inkscape:window-x="-8"
     inkscape:window-y="-8"
     inkscape:window-maximized="1"
     inkscape:current-layer="svg2" />
  <path
     d="M 50.453341,44.307353 38.12035,33.818044 c -1.274932,-1.1474 -2.63844,-1.674169 -3.739883,-1.623322 2.911284,-3.410167 4.669872,-7.834312 4.669872,-12.669703 C 39.050339,8.7416157 30.308655,0 19.525169,0 8.7417842,0 0,8.7416157 0,19.525019 c 0,10.783402 8.7416826,19.525018 19.525169,19.525018 4.835429,0 9.259608,-1.758573 12.669801,-4.669937 -0.05085,1.101434 0.475926,2.464932 1.623335,3.739855 l 10.489389,12.332896 c 1.79601,1.995519 4.72987,2.163716 6.519576,0.374025 1.789704,-1.789691 1.621605,-4.723529 -0.373929,-6.519523 z M 19.525169,32.541698 c -7.188923,0 -13.0167795,-5.827812 -13.0167795,-13.016679 0,-7.188868 5.8278565,-13.0166792 13.0167795,-13.0166792 7.188923,0 13.01678,5.8278112 13.01678,13.0166792 0,7.188867 -5.827755,13.016679 -13.01678,13.016679 z"
     id="path67"
     inkscape:connector-curvature="0" />
</svg>
